<?xml version="1.0"?>
<svg xmlns:rdf="http://www.w3.org/1999/02/22-rdf-syntax-ns#" xmlns="http://www.w3.org/2000/svg" xmlns:cc="http://creativecommons.org/ns#" xmlns:dc="http://purl.org/dc/elements/1.1/" xmlns:svg="http://www.w3.org/2000/svg" id="svg7044" xml:space="preserve" viewBox="0 0 278.9 264.54" version="1.0">
  <g id="g7051" transform="matrix(1.25 0 0 -1.25 -8.3516 798.9)">
    <g id="g7468" transform="matrix(1.5598 0 0 1.5598 -320.6 312.98)">
      <path id="path7075" fill="#f9a749" d="m162.21 603.66h0.09-0.09"/>
      <path id="path7185" fill="#f9a749" d="m209.83 157.08c0.21-1.99 15.93-74.539 15.93-74.539l126.56 13.024-41.32 97.915-101.17-36.4"/>
      <path id="path7211" fill="#fff" d="m225.16 137.09l20-63.162s45.63 23.176 85.11 29.842-15.69 27.38-16.56 60.09l-88.55-26.77"/>
      <path id="path7213" fill="#1f57af" d="m313.71 163.86c1.28-0.92 0.67-2.87 0.97-4.31 1.95-18.66 7.95-35.58 15.79-51.78l0.62-0.62c-0.05-0.25-0.41-0.1-0.62-0.15-6.25 7.23-9.53 15.69-13.07 23.99-2.92 7.28-4.1 15.23-5.79 23.02-0.21 3.29-1.9 8.11 1.02 10.57-0.1 0.4 0.11 0.76 0.47 0.87 0.97-0.16 0.2-0.98 0.61-1.59"/>
      <path id="path7215" fill="#1f57af" d="m308.79 163.96c0.26-1.9 2.15-0.85 0.97-1.57-7.84-4.51-21.43-6.53-29.63-10.12-10.77-3.54-21.9-6.2-32.36-10.46-4.66-1.43-9.27-3.02-14.04-4.31-1.54-0.71-3.13-1.33-4.93-1.43 0.62-4.1 2.16-8.05 2.98-12.2 1.74-4.98 2.87-10.16 4.3-15.28 2.82-6.92 4.72-14.255 7.39-21.279 0.92-4.001 2.92-7.537 3.18-11.792-0.47-0.669-0.41-1.743-1.49-1.591-0.21-0.562-0.77-0.257-1.08-0.513-1.02 2.153-2.46 4.103-3.43 6.306-0.77 3.487-2.93 6.462-3.69 9.948l-0.62 0.972c-5.33 15.019-10.3 30.149-12.56 46.399v2.92c0.51 0-0.15 0.36 0.26 0.42l3.28 0.71c0-0.2 0.2-0.25 0.15-0.51 0.87 0 1.74 0.92 2.72 1.13 7.79 2.87 15.94 5.02 23.74 8.1 13.48 3.74 26.61 8.41 40.45 11.23 4.87 0.82 9.02 3.43 14.41 2.92"/>
      <path id="path7217" fill="#fcd09b" d="m295.51 147.76c-1.03-2-2.31-3.85-3.44-5.8-1.18-0.66-2.51 0.21-3.43 0.36l0.1 0.62c2.05 1.95 3.74 4.51 6.15 5.9 0.72 0.15 0.87-0.62 0.62-1.08"/>
      <path id="path7219" fill="#fcd09b" d="m280.3 140.8c0.08-0.56-0.57-0.56-0.88-0.83-3.62-3.01-8.38-5.97-11-10.16-1.3-2.53-3.27-6.03-1.13-8.82 1.61-2.66 4.45-3.4 7.11-3.97 1.27-0.87 2.88-0.13 4.32-0.22 5.5 0.44 9.96 5.5 12.36 10.17 0.82 2.57 0.26 5.19-0.66 7.55-1.96 2.49-5.94 1.88-8.55 1.05-3.63-1.57-6.99-4.76-7.77-8.69-0.57-1-0.79-2.14 0.09-3.05 1.22-1.36 2.79-1.53 4.4-1.27 2.58 1.05 4.5 3.58 5.02 6.2-0.04 0.57 0.22 1.61-0.7 1.44-1.83 0.22-3.49-0.52-4.32-2.1-0.21-0.17 0.05-0.56 0.31-0.61 0.3 0 0.78 0.48 0.87-0.09 0-0.61-0.35-1.26-0.87-1.48-0.31 0.04-0.66 0-0.83-0.3-0.52 0.08-1.22 0.17-1.35 0.83-0.79 2.44 1.09 3.97 2.53 5.32 1.61 1.31 4.19 1.57 5.85 0.65 2.44-1.52 0.65-4.05 0.74-6.19-1.53-3.71-5.41-6.55-9.43-6.68-1.65 0.04-3.14 0.61-4.49 1.35-2.58 2.84-1.05 7.38 0.17 10.35 2.97 5.63 9.08 8.29 15.32 7.46 2.49-0.61 4.1-1.88 6.37-3.05 3.06-2.19 2.14-6.81 1.57-9.96-2.14-6.89-8.9-11.95-15.58-13.83-4.06-0.31-8.29 0.26-11.74 2.01-3.84 2.4-5.28 6.98-4.41 11.52 1.53 6.81 8.12 12.44 14.14 15.49 0.7 0 1.62 0.04 2.32 0.31l0.22-0.4"/>
      <path id="path7221" fill="#fff" d="m224.04 140.22l0.61 0.16-0.25-0.16h-0.36"/>
      <path id="path7223" fill="#fcd09b" d="m308.68 134.84c-0.15-0.98 0.88-2.31-0.35-2.87-3.23-0.16-6.11 1.33-9.03 1.13-0.36 0.15-0.25 0.66-0.1 0.87 2.61 1.33 5.64 1.48 8.72 1.69l0.76-0.82"/>
      <path id="path7225" fill="#fcd09b" d="m263.46 132.58c0.16-0.31-0.25-0.36-0.36-0.61-3.43 0.56-6.76 1.28-9.84 2.71-0.72 0.36-0.97-0.2-1.49 0.62 0.21 0.87 0.72 1.59 1.59 1.85 4.1 2.05 7.08-2.16 10.1-4.57"/>
      <path id="path7227" fill="#fcd09b" d="m307.3 120.07c0.77-0.61 0.72-1.74 0.52-2.61-0.26-0.82-0.78-1.69-1.6-2.21-1.12-0.15-1.69 1.13-2.61 1.49-2.26 0.72-4.05 2.56-6.15 3.69-0.52 0.51-1.08 1.03-0.82 1.85 1.23 0.97 3.02 0.25 4.41 0.1l6.25-2.31"/>
      <path id="path7229" fill="#fcd09b" d="m260.49 117.41c0.61-1.13-0.97-1.24-1.43-1.85l-5.8-4.92c-0.46-0.26-0.97 0-1.38 0.26-0.57 2.25 2.3 3.68 3.84 5.07 1.49 0.72 3.03 1.74 4.77 1.44"/>
      <path id="path7231" fill="#1f57af" d="m331.71 104.43c-0.21-0.92-1.85-0.66-2.36-1.84-0.11-0.67-0.87-0.87-1.33-1.13-11.59-2.87-23.59-4.818-34.61-8.971-12.51-3.948-25.07-7.947-36.66-14.153-2.51-0.869-4.87-2.152-7.49-2.714-0.31-0.206-0.51-0.668-0.87-0.618-0.87 0.668 0.46 1.282 0.87 1.487 17.38 11.076 36.76 17.69 56.35 23.739 8.51 1.8 16.71 5.23 26.1 4.2"/>
      <path id="path7233" fill="#fcd09b" d="m270.54 108.84c-0.46-2.61-1.59-4.92-1.85-7.63-0.46-0.98-1.64-1.13-2.61-0.83-0.51 0.21-1.13 0.42-1.23 1.08 1.08 2.87 2.66 5.49 4.82 7.9 0.41 0.1 0.77-0.16 0.87-0.52"/>
      <path id="path7235" fill="#8495d3" d="m319.81 109.59c-10.62 1.24-19.45-4.97-27.85-10.105-5.37-4.161-11.65-6.16-18.59-6.485-6.89 0-13.28-0.972-18.59-4.701-3.31-2.051-6.61-4.16-9.92-6.213l-1.14-0.109c-0.05 1.731 1.68 3.08 2.72 4.541 4.92 5.348 10.89 8.914 17.82 9.725 7.16 0.648 14.31 0.324 20.43 3.619 7.37 3.618 13.44 10.318 21.84 11.508 4.29 0.87 9.05 1.35 12.85-0.87 0.32-0.26 0.48-0.7 0.43-0.91"/>
      <path id="path7237" fill="#1f57af" d="m324.17 203.8c3.79-1.8 8.2-3.38 10.56-7.28 0.16-1.85-1.28-3.39-1.84-5.13-0.98-1.64-2.93-3.38-1.85-5.43 1.85-0.52 4.56-0.26 5.44-2.57 2.46-5.74-2.26-10.3-4.82-14.92l-3.64-5.28c-1.95 0.72-3.96 1.33-5.7 2.46-8.61 3.08-17.74 5.18-27.07 6.16l-2.1 0.71c-0.46 6.36-2.77 13.08-0.82 19.33 0.92 1.28 2 2.57 3.43 3.23l-0.15-0.15c2.16 0.46 5.03 0.31 7.18-0.36 1.02 1.95-0.87 3.85-0.77 6.05 0 1.44 0.36 2.97 1.13 4.31 6.41 3.69 14.76 1.07 21.02-1.13"/>
      <path id="path7239" fill="#8495d3" d="m328.73 197.54l0.62-1.23c-1.28-0.41-2.41-0.2-3.69-0.61-6.98-0.46-12.97 2.05-17.74 6.36 0.2 0.76 0.82 0.36 1.38 0.61 7.02 0 14.05-0.77 19.43-5.13"/>
      <path id="path7241" fill="#fff" d="m328.48 192.21c-0.52 0 0.15-0.31-0.26-0.36-4.1-0.46-7.95-0.77-12.05 0.26-3.9 1.69-8 3.18-10.56 7.02l0.25 0.36c5.7-6.36 14.26-7.74 22.62-7.28"/>
      <path id="path7243" fill="#8495d3" d="m326.27 190.01c-1.33-1.59-1.69-4.16-0.87-6 0.82-1.64 3.02-0.51 4.41-1.03 1.23-0.31 2.51-0.97 2.87-2.3-0.21-4.16-2.97-7.95-6.41-10.11-3.02 1.34-6.41 1.85-9.59 2.72-6.76 1.49-13.53 2.87-20.46 4.05-0.51 3.95-1.22 9.08 0.62 12.82 1.64 1.02 4.26 1.13 6.05 0.36 1.23 0.41 2.41 0.87 3.33 2.1 0 1.28-0.1 2.36 0.11 3.44 5.69-4.06 12.1-7.28 19.94-6.05"/>
      <path id="path7245" fill="#231f20" d="m329.42 96.485l-0.14-0.043-0.76 0.408 0.9-0.365"/>
      <path id="path7247" fill="#8495d3" d="m319.32 111.58c-0.15 3.98 2.13 8.51 5.78 10.35 3.26-0.74 7.9 0.34 9.76-3.37 3.32-4.14 1.32-9.23-1.31-13.53-1.84-3.03 0.25-6.632 1.75-9.283-0.28-0.084-0.58-0.099-0.65-0.466-3.09-0.339-5.76 2.065-8.43 3.594-3.54 3.275-6.86 7.415-6.9 12.705"/>
      <path id="path7249" fill="#fff" d="m327.58 100.13c-2.77 2.75-5.4 7.1-4.75 11.17l0.04 0.09c1.1-5.05 3.59-9.45 7.39-12.563-0.46-0.22-1.08 0.162-1.57 0.425-0.08 0.623-0.87 0.343-1.11 0.878"/>
      <path id="path7251" fill="#fff" d="m325.32 114.68c0.5-3.75 1.6-7.93 3.63-11.21l-0.17-0.09c0.04-0.6 0.67-0.94 1.06-1.08 0.18-0.21-0.36-0.68-0.08-1.24-3.22 3.22-5.17 9.07-4.44 13.62"/>
      <path id="path7253" fill="#1f57af" d="m327.46 132.34c4.28 18.46 10.68 39.24 20 55.98 0.96 1.09 1.42 2.66 2.59 3.57 0.29 1.04 0.87 1.82 1.41 2.61 1.31-0.92 0.78-2.85 1.27-4.31 0.81-9.93-1.79-20.09-4.18-30.21-2.09-7.95-5.09-16.19-8.53-23.48 0.13-0.09 0.52-0.22 0.46-0.58 0.1-0.84-0.84-0.75-1.28-1.09-2.6-4.75-4.77-9.82-7.82-14.15 0.29-0.42 1.2-0.29 1.15-0.92-0.02-0.54-0.53-0.8-0.92-0.83l-6.25 1.53c-0.28 3.87 1.43 7.89 2.1 11.88"/>
      <path id="path7255" fill="#fff" d="m327.43 121.98c1.44 4.34 2.91 8.93 4.29 12.95 0.76 0.83 2.29-0.11 3.44-0.22l0.6-0.47c-2.04-4.02-4.46-8.24-6.7-12.42-0.41-0.73-1.21-0.03-1.63 0.16"/>
      <path id="path7257" fill="#fff" d="m334.68 139.95c5.49 13.14 9.66 27.53 14.04 40.93-2.32-13.87-6.15-28.86-12.19-41.55l-1.85 0.62"/>
      <path id="path7259" fill="#fff" d="m302.33 188.37s-6.67 3.84-4.87-8.46l4.35-0.26s-4.87 5.64 0.52 8.72"/>
      <path id="path7261" fill="#fff" d="m242.98 187.24l36.63-25.1s-7.55-4.26-26.6 8.4-11.31 10.3-10.03 16.7"/>
      <path id="path7263" fill="#fff" d="m248.12 181.33s10.49 10.21 27.99 1.46l8.05-5.25-36.04 3.79"/>
      <path id="path7265" fill="#1f57af" d="m256.87 166.69c-4.52 2.94-8.04 7.14-11.8 11.03-2.31 0.35-4.81 0.19-7.22 0.31 1.33-3.43-0.03-7.83-2.49-10.37-2.3-2.29-5.6-3.43-8.64-2.72-4.26 0.68-7.31 4.14-8.36 8.13-0.27 3.32 0.84 7.22 3.54 9.32 3.56 2.99 8.27 2.98 12.06 0.81 1.58-0.53 2.02-3.92 4.21-2.17 1.17 0.53 2.47 0.62 3.7 0.95l-4.15 7.43c-3.38-1.01-7.68-0.35-10.16 2.31-2.64 2.93-3.55 6.65-2.68 10.25 1.31 3.55 4.73 6.35 8.54 7 3.8 0.66 7.64-1.37 9.75-4.41 2.17-3.37 2.1-8.29-0.44-11.82-0.29-0.34-0.69-0.56-0.85-1.01 2.97-1.74 5.25-4.35 8.16-6.19 4.21 1.71 8.74 1.49 13.15 1.9 9.47 0.7 17.26-5.87 24.56-10.42-1.44-0.69-3.62-0.15-5.27-0.13l-23.05 1.1c0.18-0.43 0.61-0.89 1.17-1.05l0.57 0.03c7.46-5.47 14.83-10.57 22.43-15.96l0.01-0.23c-8.76-2.83-19.54 0.48-26.74 5.91zm21.07-4.79l-3.89 2.53c-11.51 6.19-21.04 15.09-31.07 22.81l-0.39-0.04c3.55-6.24 8.35-11.78 13.6-16.25 5.66-4.24 14.28-9.35 21.75-9.05zm3.43 16.83c-6.41 3.47-15.78 7.68-22.86 5.95-1.71-0.3-3.69-0.98-5.37-1.75l2.88-2.32c7.63-0.2 17.47-1.88 25.35-1.88zm-31.77 1.72c-0.03 0.8-0.75 1.35-1.48 0.88-0.24-0.43-0.35-0.96 0.06-1.38 0.55-0.45 1.12 0.21 1.42 0.5zm-16.69-8.41c1.1 2.02 1.12 4.09 0.11 6.11-1.02 1.72-3.08 2.16-4.99 2.32-1.68 0.06-3.36-1.35-4.31-2.59-0.77-1.36-1.06-3.05-0.74-4.46 0.68-1.74 1.87-2.71 3.24-3.59 2.47-0.85 5.2 0.15 6.69 2.21zm2.98 22.1c1.85 0.69 3.45 1.82 4.01 3.66 0.59 1.67-0.09 3.41-1.07 4.74-1.49 1.52-3.61 2.16-5.64 1.49-1.9-0.71-3.53-2.21-3.75-4.33-0.27-1.73 0.79-3.84 2.22-4.81 1.21-0.91 2.86-0.92 4.23-0.75"/>
      <path id="path7267" fill="#fff" d="m223.41 168.5c-1.28 0.93-2.43 2.35-2.75 3.98l0.27 0.98c0.17-0.08 0.27 0.04 0.36 0.08 0.37-1.9 1.63-3.96 3.37-4.75 1.2-0.57 2.56-0.69 3.74-0.61l0.5-0.66c-1.73-0.5-3.97-0.05-5.49 0.98"/>
    </g>
  </g>
<metadata><rdf:RDF><cc:Work><dc:format>image/svg+xml</dc:format><dc:type rdf:resource="http://purl.org/dc/dcmitype/StillImage"/><cc:license rdf:resource="http://creativecommons.org/licenses/publicdomain/"/><dc:publisher><cc:Agent rdf:about="http://openclipart.org/"><dc:title>Openclipart</dc:title></cc:Agent></dc:publisher><dc:title>Artwork - paintbrush, scissors and glue</dc:title><dc:date>2007-11-09T04:55:15</dc:date><dc:description>an image from the US government EPA "Sunwise" program. I converted it from PDF format, and removed all the "sunwise" logos. the source link is here - http://www.epa.gov/sunwise/doc/guide.pdf&#xD;\n</dc:description><dc:source>http://openclipart.org/detail/8050/artwork---paintbrush-scissors-and-glue-by-ryanlerch</dc:source><dc:creator><cc:Agent><dc:title>ryanlerch</dc:title></cc:Agent></dc:creator><dc:subject><rdf:Bag><rdf:li>art</rdf:li><rdf:li>artwork</rdf:li><rdf:li>clip art</rdf:li><rdf:li>clipart</rdf:li><rdf:li>crafts</rdf:li><rdf:li>epa</rdf:li><rdf:li>epa sunwise</rdf:li><rdf:li>externalsource</rdf:li><rdf:li>image</rdf:li><rdf:li>media</rdf:li><rdf:li>paint</rdf:li><rdf:li>paintbrush</rdf:li><rdf:li>public domain</rdf:li><rdf:li>scissors</rdf:li><rdf:li>svg</rdf:li></rdf:Bag></dc:subject></cc:Work><cc:License rdf:about="http://creativecommons.org/licenses/publicdomain/"><cc:permits rdf:resource="http://creativecommons.org/ns#Reproduction"/><cc:permits rdf:resource="http://creativecommons.org/ns#Distribution"/><cc:permits rdf:resource="http://creativecommons.org/ns#DerivativeWorks"/></cc:License></rdf:RDF></metadata></svg>
