<?xml version="1.0"?>
<svg xmlns:rdf="http://www.w3.org/1999/02/22-rdf-syntax-ns#" xmlns="http://www.w3.org/2000/svg" xmlns:cc="http://creativecommons.org/ns#" xmlns:xlink="http://www.w3.org/1999/xlink" xmlns:dc="http://purl.org/dc/elements/1.1/" xmlns:svg="http://www.w3.org/2000/svg" id="svg2" viewBox="0 0 1448.5 1422.9" version="1.1">
  <defs id="defs4">
    <linearGradient id="linearGradient3995">
      <stop id="stop3997" stop-color="#34004b" offset="0"/>
      <stop id="stop3999" stop-color="#e09bff" offset="1"/>
    </linearGradient>
    <linearGradient id="linearGradient3993" x1="-62.335" xlink:href="#linearGradient3995" gradientUnits="userSpaceOnUse" x2="-5.7661" y1="125.5" y2="8.3258"/>
    <linearGradient id="linearGradient4001" x1="8.376" xlink:href="#linearGradient3995" gradientUnits="userSpaceOnUse" x2="123.53" y1="325.51" y2="115.4"/>
    <linearGradient id="linearGradient4009" x1="125.55" xlink:href="#linearGradient3995" gradientUnits="userSpaceOnUse" x2="299.3" y1="592.19" y2="272.99"/>
    <linearGradient id="linearGradient4017" x1="386.17" xlink:href="#linearGradient3995" gradientUnits="userSpaceOnUse" x2="477.09" y1="513.4" y2="331.57"/>
    <linearGradient id="linearGradient4033" y2="905.15" gradientUnits="userSpaceOnUse" y1="-203.42" x2="757.59" x1="563.3">
      <stop id="stop4029" stop-color="#f60" offset="0"/>
      <stop id="stop4031" stop-color="#ffb17d" offset="1"/>
    </linearGradient>
    <radialGradient id="radialGradient4041" gradientUnits="userSpaceOnUse" cy="37.062" cx="-1405.1" gradientTransform="matrix(-.62703 -1.3167 .96434 -.45922 -2321.8 -1796)" r="320.2">
      <stop id="stop4037" stop-color="#00f" offset="0"/>
      <stop id="stop4039" stop-color="#007cff" offset="1"/>
    </radialGradient>
  </defs>
  <g id="layer1" transform="translate(496.7 337.74)">
    <g id="g3959" stroke-linejoin="round" stroke="#000" transform="translate(942.86 -120)">
      <path id="path3923" stroke-width="5.6063" fill="#0f0" d="m-485.9 235.46c10.042-38 11.177-42.99 12.272-53.969 1.1649-11.674 1.0068-19.396-0.77333-37.788-1.4004-14.47-2.8561-22.376-7.2578-39.417-1.9605-7.5905-4.5314-18.306-5.713-23.812-4.2549-19.828-7.4829-29.093-15.434-44.303-6.2587-11.972-8.0153-14.635-13.84-20.979-2.5202-2.7449-5.3646-6.0971-6.3209-7.4494-0.95626-1.3522-3.9495-5.1476-6.6516-8.4342-2.702-3.2866-5.7702-7.0347-6.8182-8.3293l-1.9054-2.3537-0.0882 1.7472c-0.11054 2.1931 2.559 9.8255 5.2464 15 4.4101 8.4912 7.9681 19.194 11.686 35.154 0.96717 4.1516 3.482 14.38 5.5884 22.731 6.3994 25.368 6.4229 25.492 8.37 44.433 2.252 21.905 2.1132 33.899-0.57668 49.844-2.5969 15.393-21.615 84.935-24.192 88.461-0.34074 0.46619 0.91618 1.5453 5.0166 4.3067 3.0091 2.0266 11.197 7.7376 18.194 12.691 6.9975 4.9536 12.895 9.0535 13.105 9.1109 0.2102 0.0574 4.7521-16.432 10.093-36.642z"/>
      <path id="path3925" stroke-width="5.6063" fill="#008000" d="m-539.76-8.2047c-0.03-0.18998-0.24183-1.7158-0.47077-3.3908l-0.41623-3.0454-7.2006-6.4491c-8.8461-7.9228-15.365-12.951-22.967-17.714-9.5307-5.9723-16.384-9.5969-22.403-11.849-9.058-3.3885-95.982-26.518-114.72-30.528-8.1622-1.7459-15.747-3.2515-16.855-3.3457l-2.0148-0.17127 12.515 15.405c6.8831 8.4727 12.691 15.622 12.907 15.887 0.21549 0.26544 3.5399 1.0334 7.3875 1.7067 20.152 3.5262 61.213 13.722 105.42 26.176 31.355 8.8338 37.426 10.905 44.918 15.326 2.1785 1.2854 3.9364 2.1817 3.9064 1.9918z"/>
      <path id="path3927" stroke-width="11.213" fill="#008000" d="m-729.03 357.65c73.975 9.9436 150.46-9.2323 203.08-58.559 14.051-13.456 16.862-17.385 13.16-18.396-0.77318-0.21115-6.2447-4.0614-12.159-8.5561-5.9141-4.4947-11.419-8.354-12.233-8.5763-0.8795-0.24018-2.1091 0.80489-3.0306 2.5756-2.3027 4.4257-9.0788 11.622-15.991 16.982-16.655 12.916-46.412 24.1-78.316 29.436-14.71 2.4602-18.748 2.8732-39.319 4.021-7.8954 0.44054-21.583 1.3873-30.418 2.104-49.02 3.9764-83.135 2.0918-114.72-6.3378l-12.483-3.3312-9.8739 4.142c25.476 37.909 69.217 39.723 112.3 44.496v-0.00001z"/>
      <path id="path3929" stroke-width="11.213" fill="#0f0" d="m-837.71 313.95c0.11232-0.44926 0.20811-3.4075 0.20566-6.5757-0.0223-27.95 9.9461-63.652 23.372-83.711 12.853-19.202 21.732-25.436 40.835-28.668 17.925-3.0333 32.822-0.86143 86.124 12.556 31.141 7.8392 43.244 11.714 69.332 22.198 44.196 17.761 223.84 131.14 251.81 151.56 2.641 1.9283 4.7676 2.188 8.66-3.8169 0.25436-0.39243 1.1935 1.9014 3.8199-2.5526 2.2107-3.749-122.45-87.115-123.71-88.077-5.1243-3.9024-61.249-41.134-85.677-56.836-19.082-12.266-32.83-20.444-39.185-23.309-15.479-6.979-60.619-19.815-95.225-27.078-15.524-3.2581-41.689-9.2515-58.144-13.319l-29.918-7.3949-9.3514 0.6491c-12.794 0.88797-20.624 3.2311-31.634 9.4656-15.499 8.7772-23.958 20.128-27.555 36.979-9.1211 42.723-9.7301 47.944-7.5608 64.813 1.9507 15.169 11.098 35.461 18.042 40.025 1.8668 1.2269 3.8802 2.6077 4.4743 3.0685 0.5941 0.46077 1.1747 0.47092 1.2903 0.0225z"/>
      <path id="path3931" stroke-width="15.857" fill="#0f0" d="m-569.51 817.34c33.046 6.8377 54.322 2.9984 105.86-19.102 21.699-9.3055 42.041-22.807 61.436-36.693 18.026-12.906 42.442-29.519 50.685-43.066 18.052-29.669 24.554-65.065 33.959-98.496 6.8117-24.213 14.702-48.59 16.206-73.698 1.8736-31.259-0.99338-63.252-9.0732-93.507-5.0139-18.775-10.911-36.607-24.048-53.108-10.994-13.808-19.536-23.702-20.75-24.034-0.39908-0.10899-10.02 2.893-8.6882 3.9545 17.021 13.562 29.457 57.142 30.6 103.85 0.92418 37.788 0.95356 37.624-20.87 117.21l-19.455 70.953-7.5662 10.09c-8.826 11.77-20.428 22.364-40.936 37.381-8.1017 5.9324-20.013 14.845-26.469 19.807-26.526 20.384-48.05 29.808-103.08 45.133-15.645 4.3564-21.974 5.4038-27.917 4.6198-4.2274-0.55764-17.017-1.0102-28.421-1.0057-11.404 0.004-23.485-0.29153-26.846-0.65784-3.3615-0.36631-6.2338-0.21929-6.3829 0.32668-0.39741 1.4553 7.7316 7.7223 16.294 12.562 9.6121 5.4329 33.24 12.877 55.47 17.477z"/>
      <path id="path3933" stroke-width="15.857" fill="#008000" d="m-641.04 786.96c-0.13-1.2986 1.4489-8.6012-5.4225-30.389-15.964-50.62-20.031-69.344-14.358-94.353 2.0004-8.8203 4.9392-18.447 6.531-21.393 2.812-5.2052 2.7923-5.4072-0.69533-7.1525-1.9739-0.98778-4.9752-2.5759-6.6694-3.5291-2.772-1.5596-3.5462-1.0742-7.7345 4.8504-3.5987 5.0908-5.5693 10.027-8.6906 21.771-6.6964 25.195-6.4917 45.232 0.75587 74.03 6.9702 27.695 18.432 43.957 34.919 56.751 4.2347 3.2861-3.0268-12.3-2.3272-22.535 0 0 14.898 22.01 38.288 22.76 10.762 0.34504-34.597-0.80887-34.597-0.80887z"/>
    </g>
    <path id="path3860" stroke-linejoin="round" d="m-191.43-136.21 788.57 514.29-471.43 362.85z" stroke="#000" stroke-width="26.1" fill="#fff"/>
    <path id="path3862" style="block-progression:tb;color:#000000;text-transform:none;text-indent:0" d="m-28.308-19.996c-13.092 64.852-34.68 103.76-71.107 148.74l18.741 51.259c39.536-48.81 83.474-103.56 98.357-177.28z" stroke="#000" stroke-width="15.607" fill="url(#linearGradient3993)"/>
    <path id="path3870" stroke-linejoin="round" d="m-195.15-135.37c47.619-49.129 110.39-18.491 158.01-6.5511l-5.7143-71.429c-76.336-19.294-111.12 31.727-154.29 68.571-18.705-61.31 2.005-109.48 56.019-146.55l-73.969-10.245c-41.196 55.123-11.566 110.25 9.3785 165.37-46.736-33.181-78.593-87.618-160.17-71.022l-27.908 67.012c66.643-41.184 129.87-10.621 194 0.98041-39.563 50.288-103.89 102.09-88.715 170.62l53.449 22.164c-16.189-63.691 4.1719-129.22 29.349-186.9z" stroke="#000" stroke-width="26.1" fill="#ff7f2a"/>
    <path id="path3872" style="block-progression:tb;color:#000000;text-transform:none;text-indent:0" d="m456.44 292.5c-20.26 104.92-127.46 256.67-183.22 328.63l101.16-67.02c58.75-75.83 103.71-122.28 125.62-235.73z" stroke="#000" stroke-width="15.607" fill="url(#linearGradient4017)"/>
    <path id="path3874" style="block-progression:tb;color:#000000;text-transform:none;text-indent:0" d="m288.31 181.61c-36.1 178.83-111.78 308.59-210.68 430.7l21.955 47.33c102.02-125.95 193.26-263.33 231.14-451.03z" stroke="#000" stroke-width="15.607" fill="url(#linearGradient4009)"/>
    <path id="path3876" style="block-progression:tb;color:#000000;text-transform:none;text-indent:0" d="m106.94 68.942c-23.34 111.59-67.04 183.64-131.42 260.35l23.21 49.772c67.58-80.524 126.74-169.57 152-290.31z" stroke="#000" stroke-width="15.607" fill="url(#linearGradient4001)"/>
    <g id="g3910" stroke-linejoin="round" stroke="#000" fill="url(#radialGradient4041)" transform="matrix(.81262 0 0 .81262 905.28 236.54)">
      <g id="g3903">
        <path id="path3794" stroke-width="5.6063" d="m-1453.4-133.42c0.3233-39.304 0.5432-44.416 2.3787-55.295 1.9516-11.568 4.1384-18.976 10.701-36.25 5.163-13.59 8.65-20.834 17.385-36.113 3.8909-6.8059 9.1938-16.465 11.784-21.466 9.3279-18.006 14.883-26.094 26.56-38.672 9.1915-9.9005 11.588-12.006 18.878-16.592 3.1543-1.984 6.7813-4.4685 8.0601-5.5211 1.2787-1.0525 5.1661-3.9253 8.6385-6.384 3.4724-2.4586 7.4196-5.2662 8.7716-6.2389l2.4582-1.7686-0.3752 1.7087c-0.4711 2.1447-5.057 8.8043-9.0125 13.088-6.4912 7.0295-12.743 16.417-20.534 30.833-2.0267 3.7502-7.1473 12.955-11.379 20.456-12.856 22.786-12.912 22.9-19.78 40.659-7.9431 20.538-10.969 32.145-12.574 48.235-1.5499 15.533-1.5231 87.629 0.034 91.709 0.2059 0.53949-1.2909 1.2494-5.9739 2.833-3.4367 1.1623-12.839 4.5147-20.895 7.4499-8.0553 2.9352-14.824 5.3367-15.042 5.3367-0.2179 0-0.2555-17.103-0.084-38.007z"/>
        <path id="path3796" stroke-width="5.6063" d="m-1337.3-354.29c0.079-0.17536 0.6853-1.5915 1.3474-3.147l1.2038-2.8282 8.6452-4.3244c10.621-5.3126 18.234-8.4455 26.822-11.038 10.767-3.2506 18.334-4.9417 24.733-5.5282 9.6307-0.8826 99.577-0.29651 118.71 0.77354 8.3338 0.46598 16.047 1.0117 17.141 1.2128l1.9888 0.36557-16.131 11.564c-8.872 6.3601-16.358 11.727-16.636 11.926-0.2778 0.1993-3.6871 0.0644-7.5762-0.29971-20.369-1.9071-62.666-2.8886-108.59-2.5198-32.575 0.2616-38.976 0.66045-47.368 2.9513-2.4402 0.66614-4.3721 1.0677-4.2931 0.89232z"/>
        <path id="path3799" stroke-width="11.213" d="m-1251.1 48.503c-73.982-9.8954-142.72-48.544-180.48-109.99-10.01-16.682-11.687-21.213-7.8486-21.213 0.8015 0 7.094-2.2728 13.983-5.0508 6.8893-2.7779 13.216-5.0508 14.06-5.0508 0.9117 0 1.8226 1.3321 2.245 3.283 1.0555 4.876 5.6965 13.603 10.952 20.594 12.664 16.847 38.423 35.476 67.795 49.028 13.542 6.2484 17.328 7.7105 36.87 14.237 7.5004 2.5049 20.456 7.0242 28.789 10.043 46.241 16.75 79.648 23.919 112.34 24.108l12.919 0.0749 8.434 6.5969c-34.562 29.859-77.236 20.085-120.06 13.34v-0.00001z"/>
        <path id="path3801" stroke-width="11.213" d="m-1134.7 34.973c0.01-0.46298 0.6969-3.3419 1.5339-6.3976 7.3844-26.956 7.1735-64.024-0.4944-86.911-7.3403-21.909-14.264-30.262-31.84-38.413-16.492-7.6482-31.435-9.4774-86.389-10.575-32.106-0.64152-44.802-0.0917-72.731 3.1496-47.314 5.4911-250.48 67.539-282.84 79.871-3.0557 1.1645-5.1756 0.8548-7.3486-5.9634-0.142-0.44557-1.6522 1.5198-3.0125-3.4687-1.145-4.199 141.08-51.78 142.55-52.375 5.9713-2.4147 69.922-23.546 97.623-32.258 21.64-6.8056 37.056-11.073 43.942-12.163 16.77-2.6549 63.698-3.1458 98.995-1.0356 15.834 0.94662 42.654 2.0577 59.599 2.469l30.81 0.74791 8.8501 3.0897c12.108 4.227 19.045 8.5502 28.023 17.465 12.64 12.55 17.809 25.729 16.84 42.931-2.456 43.617-3.2438 48.814-9.7803 64.515-5.8777 14.119-20.048 31.285-27.949 33.858-2.1241 0.69178-4.4301 1.4934-5.1246 1.7814-0.6945 0.28799-1.2573 0.14482-1.2507-0.31818z"/>
        <path id="path3803" stroke-width="15.857" d="m-1526 449.93c-33.68-2.1094-53.193-11.418-97.085-46.314-18.481-14.693-34.548-33.077-49.6-51.581-13.99-17.199-33.166-39.657-37.549-54.897-9.5982-33.376-6.5461-69.236-6.8118-103.96-0.1925-25.152-1.3819-50.747 3.7807-75.364 6.4274-30.649 17.621-60.756 33.386-87.814 9.7828-16.791 20.169-32.439 37.189-44.896 14.243-10.424 25.09-17.718 26.348-17.718 0.4137 0 8.9044 5.4306 7.3396 6.1036-19.993 8.5991-43.47 47.363-56.877 92.121-10.846 36.21-10.831 36.043-10.746 118.57l0.076 73.571 4.6409 11.727c5.4137 13.679 13.815 26.955 29.643 46.845 6.2527 7.8572 15.395 19.593 20.316 26.08 20.219 26.652 38.5 41.413 87.553 70.695 13.944 8.3239 19.774 11.002 25.714 11.811 4.225 0.57572 16.682 3.5083 27.682 6.5169s22.732 5.9055 26.071 6.4377c3.3393 0.53218 6.0714 1.4307 6.0714 1.9966 0 1.5086-9.4928 5.4128-19.028 7.8258-10.704 2.7088-35.458 3.6659-58.115 2.2469z"/>
      </g>
      <path id="path3805" stroke-width="15.857" d="m-1449 439.47c0.4675-1.2185 0.8682-8.6791 13.237-27.887 28.736-44.626 37.591-61.617 38.707-87.238 0.3938-9.0357 0.095-19.097-0.6645-22.358-1.3414-5.7622-1.2692-5.9518 2.555-6.7167 2.1644-0.43289 5.478-1.1742 7.3635-1.6475 3.085-0.7743 3.7039-0.10204 6.1835 6.7167 2.1305 5.859 2.731 11.14 2.6483 23.291-0.1775 26.069-5.6533 45.344-20.231 71.216-14.02 24.881-29.36 37.548-48.636 45.547-4.9508 2.0544 6.1602-11.068 8.1816-21.126 0 0-20.17 17.308-42.932 11.869-10.472-2.5021 33.588 8.3337 33.588 8.3337z"/>
    </g>
    <path id="path3949" stroke="#000" stroke-width="40.475" fill="url(#linearGradient4033)" d="m516.69-317.5-16.274 90.945c176.28 306.71 45.271 447.99 21.061 429.84 0 0-33.643-11.511-34.464-25.848-7-122.37 155.73-360.52 278.27-357.76 191.45 4.3166-60.931 416.27-114.98 607.71-95.071 336.75 11.729 337.01 93.273 338.8 90.641 1.9967 234.39-142.68 173.27-209.65-69.026-75.646-218.17 68.499-240.29 168.49-25.093 113.44 170.07 312.55 170.07 312.55s-67.754-144.27-101.48-230.71c-30.88-79.16 75.88-230.66 128.62-205.31 26.47 12.71-22.93 108.94-47.87 124.45-51.63 32.1-196.04 31.84-171.36-20.11 38.29-168.37 317.91-789.03 145.52-808.93-166.98-16.62-279.04 13.464-335.06 117.75-39.56 73.632-73.83 263.9 61.26 243.16 238.36-36.59 118.07-485.82-9.57-575.35z"/>
    <g id="g4047">
      <path id="path3807" stroke="#000" stroke-width="18.9" fill="#f0f" d="m-340.59 754.27 838.57 54.286c-70.51 11.67-162.65 156.78-65.72 267.14l-778.57-244.29c-50.682-22.535-0.0902-81.007 5.7143-77.143z"/>
      <path id="path3813" fill="#ff93ff" d="m-233.53 783.91 660.92 69.29-34.19 99.28-655.22-129.28z"/>
      <path id="path3811" stroke-linejoin="round" stroke="#000" stroke-width="21.402" d="m-347.97 764.63 119.07 7.1429-47.626 68.571-84.262-24.286z"/>
      <path id="path3809" stroke-linejoin="round" d="m972.86 705.93a51.429 170.71 0 1 1 -102.86 0 51.429 170.71 0 1 1 102.86 0z" transform="matrix(1.5237 -.11336 -.11442 .80389 -849.85 477.07)" stroke="#000" stroke-width="11.1"/>
    </g>
  </g>
  <metadata>
    <rdf:RDF>
      <cc:Work>
        <dc:format>image/svg+xml</dc:format>
        <dc:type rdf:resource="http://purl.org/dc/dcmitype/StillImage"/>
        <cc:license rdf:resource="http://creativecommons.org/licenses/publicdomain/"/>
        <dc:publisher>
          <cc:Agent rdf:about="http://openclipart.org/">
            <dc:title>Openclipart</dc:title>
          </cc:Agent>
        </dc:publisher>
        <dc:title>Party 1</dc:title>
        <dc:date>2012-07-31T04:57:18</dc:date>
        <dc:description>Hat &amp; Horn for party time - Chapeau et corne pour faire la f&#xC3;&#xAA;te</dc:description>
        <dc:source>http://openclipart.org/detail/171359/party-1-by-cyberscooty-171359</dc:source>
        <dc:creator>
          <cc:Agent>
            <dc:title>cyberscooty</dc:title>
          </cc:Agent>
        </dc:creator>
        <dc:subject>
          <rdf:Bag>
            <rdf:li>celebration</rdf:li>
            <rdf:li>chapeau</rdf:li>
            <rdf:li>clip art</rdf:li>
            <rdf:li>clipart</rdf:li>
            <rdf:li>corne</rdf:li>
            <rdf:li>cotillons</rdf:li>
            <rdf:li>c&#xC3;&#xA9;l&#xC3;&#xA9;bration</rdf:li>
            <rdf:li>festivity</rdf:li>
            <rdf:li>festivit&#xC3;&#xA9;</rdf:li>
            <rdf:li>f&#xC3;&#xAA;te</rdf:li>
            <rdf:li>gala</rdf:li>
            <rdf:li>hat</rdf:li>
            <rdf:li>horn</rdf:li>
            <rdf:li>party</rdf:li>
            <rdf:li>party favors</rdf:li>
            <rdf:li>serpentin</rdf:li>
            <rdf:li>serpentine</rdf:li>
          </rdf:Bag>
        </dc:subject>
      </cc:Work>
      <cc:License rdf:about="http://creativecommons.org/licenses/publicdomain/">
        <cc:permits rdf:resource="http://creativecommons.org/ns#Reproduction"/>
        <cc:permits rdf:resource="http://creativecommons.org/ns#Distribution"/>
        <cc:permits rdf:resource="http://creativecommons.org/ns#DerivativeWorks"/>
      </cc:License>
    </rdf:RDF>
  </metadata>
</svg>
